<?xml version="1.0" encoding="UTF-8"?>
<svg width="222px" height="40px" viewBox="0 0 222 40" version="1.1" xmlns="http://www.w3.org/2000/svg" xmlns:xlink="http://www.w3.org/1999/xlink">
    <!-- Generator: Sketch 56.2 (81672) - https://sketch.com -->
    <title>oll</title>
    <desc>Created with Sketch.</desc>
    <defs>
        <polygon id="path-1" points="0 0.201784547 78.6423802 0.201784547 78.6423802 35.625981 0 35.625981"></polygon>
        <polygon id="path-3" points="0.60523125 0.606655738 38.5341937 0.606655738 38.5341937 40 0.60523125 40"></polygon>
    </defs>
    <g id="website" stroke="none" stroke-width="1" fill="none" fill-rule="evenodd">
        <g id="官網更新-概念草稿_1440" transform="translate(-735.000000, -6978.000000)">
            <g id="oll" transform="translate(735.666667, 6978.000000)">
                <g id="Group-3" transform="translate(0.000000, 4.000000)">
                    <mask id="mask-2" fill="white">
                        <use xlink:href="#path-1"></use>
                    </mask>
                    <g id="Clip-2"></g>
                    <path d="M32.7781402,28.0141826 C7.41137183,28.025219 13.4197168,19.8168381 14.4723918,18.397219 C16.5561485,15.0000762 25.5713652,14.6686476 30.4460602,14.4090286 C48.9245552,12.9010286 57.5294985,19.2368381 57.5294985,19.2368381 C45.4480285,28.1025524 34.6459635,27.7821714 32.7781402,28.0141826 M67.7755352,22.6616 C68.4125385,21.9435048 75.2954135,16.0109333 72.1913718,9.25531429 C69.9834535,5.34998095 56.1151352,-0.914019048 46.4845085,0.373028571 C48.0878135,0.62712381 66.2316118,2.3008381 64.7632652,11.1057905 C63.8347518,14.2377905 61.0708052,17.3753143 61.0708052,17.3753143 C61.0708052,17.3753143 53.3187985,10.4816 31.2126235,9.74693333 C23.5469902,9.51493333 11.8110135,10.5368381 2.37472683,17.2040762 C-1.02082483,19.4356952 -2.36500983,25.0257905 9.50052683,28.8814095 C11.2873752,29.5497905 18.8612368,33.7644571 36.7675085,32.4608381 C46.9271718,31.7427429 60.9304485,27.9755048 64.9576052,24.6943619 C65.5514218,24.9208381 68.6122768,27.4120762 68.6122768,27.4120762 L68.6014802,25.5726476 L78.6423802,35.625981 C78.6423802,35.625981 76.2401218,29.477981 67.7755352,22.6616" id="Fill-1" fill="#5E5E5E" mask="url(#mask-2)"></path>
                </g>
                <g id="Group-6" transform="translate(100.000000, 0.000000)">
                    <mask id="mask-4" fill="white">
                        <use xlink:href="#path-3"></use>
                    </mask>
                    <g id="Clip-5"></g>
                    <path d="M9.03508125,14.028459 C9.81800625,14.1907541 10.4400563,14.2340328 12.2579437,14.2340328 C11.6358937,12.9032131 11.1425438,12.0700984 9.94134375,10.5282951 L13.2071062,9.06763934 C14.1991687,10.2794426 14.9016562,11.3614098 15.5183437,12.6922295 L12.5421562,14.2340328 L17.1324562,14.2340328 L17.1324562,11.7779672 C17.1324562,10.9448525 17.0466562,10.068459 16.9286812,9.27321311 L21.2186812,9.27321311 C21.0578062,10.2361639 21.0149062,10.6094426 21.0149062,11.7346885 L21.0149062,14.2340328 L25.4389687,14.2340328 L22.7094562,13.0655082 C23.9052937,11.5237049 24.5327062,10.5661639 25.1493937,9.11091803 L28.5813937,10.2794426 C27.4230937,12.2756721 26.8010437,13.1953443 25.8947812,14.2340328 L26.6777062,14.2340328 C28.2918187,14.2340328 28.8656062,14.1907541 29.7343312,14.0717377 L29.7343312,17.7396066 C28.9943062,17.6097705 28.2060187,17.5664918 26.6777062,17.5664918 L22.0498687,17.5664918 C24.1197937,18.3617377 26.4256687,19.5681311 29.1980812,21.2397705 L27.2514937,24.5289508 C24.4469062,22.4894426 24.4469062,22.4894426 20.9773687,20.531082 L20.9773687,21.8619016 C20.9773687,22.7382951 20.9773687,22.9871475 21.1382437,23.5768197 L17.0466562,23.5768197 C17.1753562,23.1169836 17.1753562,22.7815738 17.1753562,21.5751803 L17.1753562,20.7366557 C17.2128937,19.903541 17.2557937,19.2814098 17.2986937,18.8648525 C15.0249937,21.7374754 13.4966812,22.9871475 10.3113562,24.6587869 C9.57133125,23.3658361 9.07261875,22.7004262 8.16635625,21.6563279 L8.16635625,25.3241967 L3.66185625,25.3241967 C3.78519375,24.4099344 3.82273125,23.4469836 3.82273125,22.0728852 L3.82273125,7.77468852 C3.82273125,6.44386885 3.78519375,5.48091803 3.66185625,4.52337705 C4.90059375,4.64780328 6.02135625,4.68567213 7.95721875,4.68567213 L14.6978812,4.68567213 C15.4379062,3.52255738 15.9312562,2.43518033 16.6337437,0.606655738 L21.4707187,1.22878689 C20.6448937,2.85714754 20.2319812,3.64698361 19.5723937,4.68567213 L31.0159687,4.68567213 C32.7963187,4.68567213 33.8259187,4.64780328 35.1075562,4.52337705 C34.9842187,5.43763934 34.9413187,6.18960656 34.9413187,7.64485246 L34.9413187,22.1540328 C34.9413187,23.4469836 34.9842187,24.4099344 35.1075562,25.3241967 L30.5976937,25.3241967 L30.5976937,8.44009836 L8.16635625,8.44009836 L8.16635625,21.488623 C10.9334062,20.3200984 12.7137562,19.1515738 14.1562687,17.5664918 L12.2954812,17.5664918 C10.5580312,17.5664918 10.1075813,17.6097705 9.03508125,17.7396066 L9.03508125,14.028459 Z M23.9052937,30.6150164 C26.7635062,33.5363279 31.4288812,35.116 38.5341937,35.5758361 C37.5850312,37.160918 37.0058812,38.416 36.5554312,40.001082 C27.6268687,38.7081311 22.2590062,35.9978033 19.0307812,31.1614098 C16.0170562,36.0356721 10.8529687,38.8325574 2.58935625,40.001082 C2.04774375,38.3727213 1.51149375,37.160918 0.60523125,35.8300984 C7.05095625,35.413541 11.3463187,33.7851803 14.2420687,30.6150164 L5.19016875,30.6150164 C3.45271875,30.6150164 2.09064375,30.7015738 0.76610625,30.8692787 L0.76610625,26.4927213 C2.09064375,26.6604262 3.37228125,26.6982951 5.19016875,26.6982951 L16.4299687,26.6982951 C16.6766437,25.8273115 16.7999812,25.1943607 16.7999812,24.6587869 C16.7999812,24.6155082 16.7999812,24.491082 16.7570812,24.323377 L21.5511562,24.491082 C21.5136187,24.6587869 21.5136187,24.7020656 21.4707187,24.9076393 C21.3473812,25.4919016 21.2186812,26.0328852 21.0149062,26.6982951 L33.3701062,26.6982951 C35.4400312,26.6982951 36.4696312,26.6604262 37.7888062,26.4927213 L37.7888062,30.8692787 C36.4696312,30.7015738 35.1450937,30.6150164 33.3701062,30.6150164 L23.9052937,30.6150164 Z" id="Fill-4" fill="#5E5E5E" mask="url(#mask-4)"></path>
                </g>
                <path d="M160.521706,14.8354104 C160.143336,18.0633147 160.099467,18.2756052 159.721097,20.1208996 C158.328256,26.7073485 156.123839,30.8551783 151.901447,34.7580576 C149.702513,36.8101991 147.673572,38.2363558 144.50952,40 C143.577304,38.2363558 142.480579,36.8972927 141,35.6344363 C146.790708,33.1196104 150.63473,29.7665091 152.915918,25.1940983 C154.226504,22.5921788 154.944859,19.7398653 155.58096,14.8354104 L148.227418,14.8354104 C146.072353,14.8354104 144.421782,14.9170606 142.985072,15.0858043 L142.985072,10.0507091 C144.50952,10.2575562 145.94623,10.3446498 148.353542,10.3446498 L155.871592,10.3446498 C155.915461,9.08723679 155.95933,7.87337058 155.95933,5.98452944 C155.95933,4.0956883 155.871592,2.83827532 155.707083,2 L161.322315,2 C161.152323,3.04512248 161.152323,3.04512248 160.861691,10.3446498 L171.55476,10.3446498 C174.088195,10.3446498 175.56329,10.301103 177,10.1378026 C176.835491,11.7708065 176.835491,11.7708065 176.747753,16.4684143 C176.62163,22.2111445 176.199391,29.3038247 175.777152,32.0744879 C175.228789,35.9338204 174.636558,37.4035239 173.325971,38.318006 C172.185377,39.1181779 170.704798,39.450222 168.171363,39.450222 C166.224676,39.450222 164.705712,39.3304684 161.832292,38.9929809 C161.574562,36.8537459 161.28393,35.6344363 160.647829,33.9197823 C163.395126,34.4586735 165.764052,34.7580576 167.919117,34.7580576 C169.904189,34.7580576 170.534806,34.0014325 171.000914,31.1926658 C171.55476,28.0464117 171.93313,21.5416129 171.971516,14.8354104 L160.521706,14.8354104 Z" id="Fill-7" fill="#5E5E5E"></path>
                <path d="M198.719711,9.6010101 L189.274864,9.6010101 C187.349005,9.6010101 186.052441,9.68855219 184.631103,9.8526936 L184.631103,5.13089226 C186.095841,5.34427609 187.392405,5.4263468 189.524412,5.4263468 L198.719711,5.4263468 L198.719711,4.24452862 C198.719711,2.93686869 198.638336,2.13804714 198.513562,1 L203.531646,1 C203.358047,2.00673401 203.320072,2.81102694 203.320072,4.28829966 L203.320072,5.4263468 L213.269439,5.4263468 C215.694394,5.4263468 217.072333,5.34427609 218.244123,5.13089226 L218.244123,9.8526936 C216.990958,9.64478114 215.694394,9.6010101 213.556962,9.6010101 L203.320072,9.6010101 L203.320072,18.7929293 L206.162749,18.7929293 C207.915009,16.0517677 209.254973,13.223064 210.25859,10.2739899 L214.652803,11.7074916 C213.643761,14.1969697 212.396022,16.6426768 211.012658,18.7929293 L215.401447,18.7929293 C217.907776,18.7929293 219.079566,18.7491582 220.207957,18.5412458 L220.207957,23.3013468 C218.786618,23.1372054 217.327306,23.0496633 215.189873,23.0496633 L205.994575,23.0496633 C209.840868,28.1927609 214.104882,31.3552189 221,34.1784512 C219.746835,35.6994949 219.079566,36.75 218.200723,38.6102694 C214.061483,36.4545455 211.511754,34.7693603 208.712477,32.2415825 C206.455696,30.1734007 205.034358,28.5319865 203.151899,25.7470539 C203.276673,28.1544613 203.320072,28.8657407 203.320072,29.7575758 L203.320072,35.6994949 C203.320072,37.297138 203.401447,38.648569 203.61302,40 L198.426763,40 C198.638336,38.648569 198.719711,37.4667508 198.719711,35.6994949 L198.719711,29.790404 C198.719711,28.4882155 198.719711,27.6893939 198.844485,25.878367 C196.880651,29.0353535 194.916817,31.2731481 191.905967,33.8009259 C189.605787,35.6994949 187.435805,37.1712963 184.842676,38.5227273 C183.83906,36.706229 183.253165,35.7815657 182,34.3097643 C185.846293,32.5753367 189.025316,30.4688552 192.242315,27.5143098 C193.40868,26.4200337 194.916817,24.6965488 196.045208,23.0496633 L187.560579,23.0496633 C185.553345,23.0496633 184.256781,23.1372054 182.667269,23.3013468 L182.667269,18.5412458 C184.094033,18.7491582 185.222423,18.7929293 187.522604,18.7929293 L191.113924,18.7929293 C190.197107,16.0079966 189.356239,14.2407407 187.896926,11.7512626 L191.824593,9.97853535 C193.245931,12.4242424 193.701627,13.3106061 195.291139,17.3156566 L191.992767,18.7929293 L198.719711,18.7929293 L198.719711,9.6010101 Z" id="Fill-9" fill="#5E5E5E"></path>
            </g>
        </g>
    </g>
</svg>