<svg xmlns="http://www.w3.org/2000/svg" xmlns:xlink="http://www.w3.org/1999/xlink" width="167" height="76" viewBox="0 0 167 76">
    <defs>
        <path id="prefix__a" d="M0 30.412C0 48.32 40.105 58.293 54.696 59.83c-23.92-6.324-42.804-17.905-42.804-29.418C11.89 18.407 28.79 7.379 45.017.05 26.95 5.44 0 18.17 0 30.412z"/>
        <path id="prefix__c" d="M0.4 0.225L81.727 0.225 81.727 76 0.4 76z"/>
        <path id="prefix__e" d="M.4 38.409C.4 55.989 43.722 69.489 81.727 76 42.4 64.849 12.413 52.333 12.413 38.409c0-15.005 18.393-28.403 40.884-38.184C53.297.225.4 15.649.4 38.409z"/>
        <path id="prefix__g" d="M43.023 30.412C43.023 41.925 24.14 53.506.22 59.83c14.589-1.537 54.696-11.51 54.696-29.418C54.916 18.169 27.966 5.44 9.898.05c16.227 7.33 33.127 18.357 33.125 30.362z"/>
        <path id="prefix__i" d="M0.158 0.225L80.92 0.225 80.92 76 0.158 76z"/>
        <path id="prefix__k" d="M28.39.225c22.335 9.78 40.601 23.18 40.601 38.184C68.991 52.333 39.213 64.849.16 76c37.74-6.511 80.76-20.01 80.76-37.591C80.92 15.649 28.392.225 28.392.225z"/>
        <path id="prefix__m" d="M35.273.075c-.376 1.383-.592 2.133-.861 2.995l.623.16c.191-.39.557-1.043 1.063-1.59.59-.63 1.505-.783 2.337-.783h3.535c.576.008.796-.017.944.2.138.204.078.431-.099.709-.45.707-8.4 12.936-8.83 13.599l.249.38h11.821c.268-.737.737-2.172 1.101-3.347l-.598-.156c-.417.915-.885 1.596-1.552 2.06-.787.552-1.803.64-2.41.64h-3.27c-.438 0-.845-.053-1.017-.325-.246-.39.091-.9.262-1.164 1.32-2.026 7.977-12.317 8.432-13.016l-.247-.364-11.483.002zm36.348 0v.581l.588.087c1.057.154 1.18.56 1.18 2.607v9.116c0 2.046-.123 2.29-1.18 2.556l-.588.138v.585h6.202v-.585l-.59-.138c-1.057-.266-1.178-.51-1.178-2.556v-2.5c0-.423.173-.602.523-.602.23 0 1.165.004 1.742-.028 1.658-.095 2.703-.41 3.758-.939 1.1-.551 2.517-1.708 2.517-3.86 0-1.626-1.047-2.86-2.196-3.54-1.14-.673-2.897-.923-4.918-.923l-5.86.001zm4.435 7.922V1.472c0-.645.565-.68 1.843-.68 2.58 0 3.778 1.475 3.778 3.77 0 2.042-.49 3.444-3.307 3.95-.416.077-.83.087-1.202.087h-.59c-.349 0-.522-.179-.522-.602zM20.88.075v.581l.59.087c1.056.154 1.179.56 1.179 2.607v9.116c0 2.046-.123 2.289-1.18 2.555l-.589.139v.585h6.386v-.585l-.59-.139c-1.057-.266-1.18-.509-1.18-2.555V3.35c0-2.046.123-2.453 1.18-2.607l.59-.084V.075h-6.386zm-20.47 0v.581l.588.087c1.058.154 1.18.56 1.18 2.607v9.116c0 2.046-.122 2.289-1.18 2.555l-.589.139v.585h6.198v-.585l-.59-.139c-1.056-.266-1.178-.509-1.178-2.555V9.25c0-.42.172-.6.521-.6h.784c.464 0 .623.238.986.756.753 1.061 1.752 2.69 2.389 3.555 1.736 2.385 3.61 2.97 5.698 2.97.469 0 .848-.056 1.079-.114v-.345c-.672-.046-1.302-.29-1.713-.64-1.67-1.362-3.154-3.487-5.117-6.542-.128-.172-.08-.19.111-.246 1.347-.391 3.474-1.452 3.474-3.971 0-1.984-1.219-2.896-2.504-3.464C9.388.1 7.97.075 6.465.075H.41zm4.95 7.867c-.348 0-.52-.18-.52-.6V1.54c0-.714.564-.75 1.842-.75 2.384 0 3.455 1.75 3.455 3.633 0 1.594-.466 2.417-1.113 2.909-.716.511-1.523.61-2.423.61h-1.24zM58.907.075s-5.11 12.763-5.538 13.844c-.16.402-.422.857-1.173 1.034-.514.122-1.104.207-1.104.207v.585h4.976v-.585l-.56-.063c-.843-.092-1.215-.074-.765-1.366.162-.464 1.165-3.265 1.278-3.571.116-.304.483-.551.82-.551h3.82c.337 0 .698.247.806.553l1.51 4.25c.106.306-.075.584-.41.621l-1.145.127v.585h6.115v-.585s-.045-.007-.728-.138c-.682-.132-.86-.414-1.571-2.426L60.794.076h-1.887zm-2.122 8.076c.854-2.254 1.681-4.435 1.953-5.157.054-.137.137-.137.185.002l1.829 5.15c.11.307-.076.553-.413.553h-3.153c-.337 0-.517-.245-.4-.548z"/>
        <path id="prefix__o" d="M35.273.075c-.376 1.383-.592 2.133-.861 2.995l.623.16c.191-.39.557-1.043 1.063-1.59.59-.63 1.505-.783 2.337-.783h3.535c.576.008.796-.017.944.2.138.204.078.431-.099.709-.45.707-8.4 12.936-8.83 13.599l.249.38h11.821c.268-.737.737-2.172 1.101-3.347l-.598-.156c-.417.915-.885 1.596-1.552 2.06-.787.552-1.803.64-2.41.64h-3.27c-.438 0-.845-.053-1.017-.325-.246-.39.091-.9.262-1.164 1.32-2.026 7.977-12.317 8.432-13.016l-.247-.364-11.483.002zm36.348 0v.581l.588.087c1.057.154 1.18.56 1.18 2.607v9.116c0 2.046-.123 2.29-1.18 2.556l-.588.138v.585h6.202v-.585l-.59-.138c-1.057-.266-1.178-.51-1.178-2.556v-2.5c0-.423.173-.602.523-.602.23 0 1.165.004 1.742-.028 1.658-.095 2.703-.41 3.758-.939 1.1-.551 2.517-1.708 2.517-3.86 0-1.626-1.047-2.86-2.196-3.54-1.14-.673-2.897-.923-4.918-.923l-5.86.001zm4.435 7.922V1.472c0-.645.565-.68 1.843-.68 2.58 0 3.778 1.475 3.778 3.77 0 2.042-.49 3.444-3.307 3.95-.416.077-.83.087-1.202.087h-.59c-.349 0-.522-.179-.522-.602zM20.88.075v.581l.59.087c1.056.154 1.179.56 1.179 2.607v9.116c0 2.046-.123 2.289-1.18 2.555l-.589.139v.585h6.386v-.585l-.59-.139c-1.057-.266-1.18-.509-1.18-2.555V3.35c0-2.046.123-2.453 1.18-2.607l.59-.084V.075h-6.386zm-20.47 0v.581l.588.087c1.058.154 1.18.56 1.18 2.607v9.116c0 2.046-.122 2.289-1.18 2.555l-.589.139v.585h6.198v-.585l-.59-.139c-1.056-.266-1.178-.509-1.178-2.555V9.25c0-.42.172-.6.521-.6h.784c.464 0 .623.238.986.756.753 1.061 1.752 2.69 2.389 3.555 1.736 2.385 3.61 2.97 5.698 2.97.469 0 .848-.056 1.079-.114v-.345c-.672-.046-1.302-.29-1.713-.64-1.67-1.362-3.154-3.487-5.117-6.542-.128-.172-.08-.19.111-.246 1.347-.391 3.474-1.452 3.474-3.971 0-1.984-1.219-2.896-2.504-3.464C9.388.1 7.97.075 6.465.075H.41zm4.95 7.867c-.348 0-.52-.18-.52-.6V1.54c0-.714.564-.75 1.842-.75 2.384 0 3.455 1.75 3.455 3.633 0 1.594-.466 2.417-1.113 2.909-.716.511-1.523.61-2.423.61h-1.24zM58.907.075s-5.11 12.763-5.538 13.844c-.16.402-.422.857-1.173 1.034-.514.122-1.104.207-1.104.207v.585h4.976v-.585l-.56-.063c-.843-.092-1.215-.074-.765-1.366.162-.464 1.165-3.265 1.278-3.571.116-.304.483-.551.82-.551h3.82c.337 0 .698.247.806.553l1.51 4.25c.106.306-.075.584-.41.621l-1.145.127v.585h6.115v-.585s-.045-.007-.728-.138c-.682-.132-.86-.414-1.571-2.426L60.794.076h-1.887zm-2.122 8.076c.854-2.254 1.681-4.435 1.953-5.157.054-.137.137-.137.185.002l1.829 5.15c.11.307-.076.553-.413.553h-3.153c-.337 0-.517-.245-.4-.548z"/>
    </defs>
    <g fill="none" fill-rule="evenodd">
        <path fill="#5B5B5B" d="M11.74 38.966C11.74 50.328 30.385 61.758 54 68 39.595 66.483 0 56.64 0 38.966 0 26.882 26.607 14.32 44.444 9 28.422 16.233 11.74 27.117 11.741 38.966"/>
        <g transform="translate(0 8)">
            <mask id="prefix__b" fill="#fff">
                <use xlink:href="#prefix__a"/>
            </mask>
            <path fill="#5B5B5B" d="M0 59.83L54.696 59.83 54.696 0.05 0 0.05z" mask="url(#prefix__b)"/>
        </g>
        <g transform="translate(17)">
            <mask id="prefix__d" fill="#fff">
                <use xlink:href="#prefix__c"/>
            </mask>
            <path fill="#5B5B5B" d="M.4 38.41C.4 55.99 43.723 69.487 81.727 76 42.4 64.849 12.413 52.333 12.413 38.41c0-15.006 18.393-28.404 40.884-38.185C53.297.225.4 15.649.4 38.409" mask="url(#prefix__d)"/>
        </g>
        <g transform="translate(17)">
            <mask id="prefix__f" fill="#fff">
                <use xlink:href="#prefix__e"/>
            </mask>
            <path fill="#5B5B5B" d="M0.4 76L81.727 76 81.727 0.225 0.4 0.225z" mask="url(#prefix__f)"/>
        </g>
        <path fill="#5B5B5B" d="M155.259 38.966c0 11.362-18.643 22.792-42.259 29.034 14.403-1.517 54-11.36 54-29.034C167 26.882 140.393 14.32 122.555 9c16.02 7.233 32.705 18.117 32.704 29.966"/>
        <g transform="translate(112 8)">
            <mask id="prefix__h" fill="#fff">
                <use xlink:href="#prefix__g"/>
            </mask>
            <path fill="#5B5B5B" d="M0.22 59.83L54.916 59.83 54.916 0.05 0.22 0.05z" mask="url(#prefix__h)"/>
        </g>
        <g transform="translate(69)">
            <mask id="prefix__j" fill="#fff">
                <use xlink:href="#prefix__i"/>
            </mask>
            <path fill="#5B5B5B" d="M80.92 38.41C80.92 55.99 37.899 69.487.158 76c39.055-11.151 68.833-23.667 68.833-37.59 0-15.006-18.267-28.404-40.6-38.185 0 0 52.529 15.424 52.529 38.184" mask="url(#prefix__j)"/>
        </g>
        <g transform="translate(69)">
            <mask id="prefix__l" fill="#fff">
                <use xlink:href="#prefix__k"/>
            </mask>
            <path fill="#5B5B5B" d="M0.159 76L80.92 76 80.92 0.225 0.159 0.225z" mask="url(#prefix__l)"/>
        </g>
        <path fill="#5B5B5B" d="M119.79 36.515c-.416.077-.828.088-1.2.088h-.588c-.35 0-.522-.181-.522-.608v-6.584c0-.651.564-.687 1.84-.687 2.574 0 3.77 1.489 3.77 3.805 0 2.06-.49 3.475-3.3 3.986zm4.02-7.584c-1.137-.678-2.892-.93-4.908-.93l-5.847.001v.586l.587.088c1.055.155 1.176.565 1.176 2.63v9.199c0 2.064-.121 2.309-1.176 2.578l-.587.14v.59h6.188v-.59l-.588-.14c-1.055-.269-1.176-.514-1.176-2.578V37.98c0-.426.173-.607.522-.607.229 0 1.162.004 1.738-.028 1.655-.096 2.697-.413 3.75-.947 1.097-.557 2.511-1.724 2.511-3.894 0-1.642-1.044-2.888-2.19-3.574zM100.2 30.947c.053-.139.136-.139.185.002l1.824 5.196c.11.31-.076.559-.412.559h-3.147c-.336 0-.515-.248-.4-.554l1.95-5.203zm6.485 9.688l-4.435-12.633h-1.882S95.271 40.88 94.843 41.97c-.16.406-.42.865-1.17 1.044-.513.123-1.102.208-1.102.208v.59h4.965v-.59l-.56-.063c-.84-.093-1.211-.075-.762-1.379.161-.467 1.163-3.294 1.276-3.603.115-.307.482-.556.817-.556h3.813c.335 0 .695.25.803.558l1.506 4.29c.107.307-.074.588-.407.626l-1.144.128v.59h6.102v-.59l-.726-.14c-.681-.133-.858-.417-1.568-2.448zm-42.495-.13c0 2.064-.122 2.309-1.176 2.577l-.588.14v.59h6.372v-.59l-.59-.14c-1.054-.268-1.176-.513-1.176-2.578v-9.198c0-2.065.122-2.475 1.177-2.63l.589-.085v-.59h-6.372v.587l.588.088c1.054.155 1.176.565 1.176 2.63v9.198zm-17.77-3.246c0-.424.172-.606.52-.606h.782c.462 0 .621.24.984.764.751 1.07 1.748 2.714 2.383 3.586C52.822 43.41 54.693 44 56.776 44c.468 0 .846-.056 1.076-.114v-.349c-.67-.046-1.3-.292-1.71-.646-1.666-1.374-3.146-3.518-5.104-6.6-.128-.174-.08-.193.11-.248 1.345-.395 3.466-1.466 3.466-4.007 0-2.003-1.215-2.923-2.498-3.495-1.158-.516-2.571-.54-4.074-.54H42v.587l.588.088c1.056.155 1.177.565 1.177 2.63v9.198c0 2.065-.121 2.31-1.177 2.578l-.588.14v.59h6.185v-.59l-.588-.14c-1.055-.268-1.176-.513-1.176-2.578V37.26zm1.839-8.535c2.379 0 3.447 1.765 3.447 3.666 0 1.609-.465 2.438-1.11 2.935-.714.516-1.52.616-2.418.616l-1.238-.001c-.348 0-.52-.181-.52-.606V29.48c0-.72.563-.756 1.839-.756zm36.053.984c.177-.28.236-.51.098-.715-.147-.22-.367-.194-.942-.202h-3.527c-.83 0-1.744.154-2.332.79-.505.552-.87 1.211-1.061 1.604l-.622-.161c.27-.87.484-1.627.86-3.022L88.244 28l.247.366c-.453.706-7.096 11.09-8.414 13.134-.17.266-.506.781-.261 1.174.172.275.578.328 1.015.328h3.262c.607 0 1.62-.089 2.406-.645.665-.469 1.133-1.156 1.548-2.08l.597.158c-.364 1.186-.83 2.634-1.099 3.377H75.75l-.248-.383c.428-.67 8.36-13.008 8.81-13.721z"/>
        <g transform="translate(42 28)">
            <mask id="prefix__n" fill="#fff">
                <use xlink:href="#prefix__m"/>
            </mask>
            <path fill="#5B5B5B" d="M0.41 15.931L84.595 15.931 84.595 0.074 0.41 0.074z" mask="url(#prefix__n)"/>
        </g>
        <path fill="#5B5B5B" d="M119.79 36.515c-.416.077-.828.088-1.2.088h-.588c-.35 0-.522-.181-.522-.608v-6.584c0-.651.564-.687 1.84-.687 2.574 0 3.77 1.489 3.77 3.805 0 2.06-.49 3.475-3.3 3.986zm4.02-7.584c-1.137-.678-2.892-.93-4.908-.93l-5.847.001v.586l.587.088c1.055.155 1.176.565 1.176 2.63v9.199c0 2.064-.121 2.309-1.176 2.578l-.587.14v.59h6.188v-.59l-.588-.14c-1.055-.269-1.176-.514-1.176-2.578V37.98c0-.426.173-.607.522-.607.229 0 1.162.004 1.738-.028 1.655-.096 2.697-.413 3.75-.947 1.097-.557 2.511-1.724 2.511-3.894 0-1.642-1.044-2.888-2.19-3.574zM100.2 30.947c.053-.139.136-.139.185.002l1.824 5.196c.11.31-.076.559-.412.559h-3.147c-.336 0-.515-.248-.4-.554l1.95-5.203zm6.485 9.688l-4.435-12.633h-1.882S95.271 40.88 94.843 41.97c-.16.406-.42.865-1.17 1.044-.513.123-1.102.208-1.102.208v.59h4.965v-.59l-.56-.063c-.84-.093-1.211-.075-.762-1.379.161-.467 1.163-3.294 1.276-3.603.115-.307.482-.556.817-.556h3.813c.335 0 .695.25.803.558l1.506 4.29c.107.307-.074.588-.407.626l-1.144.128v.59h6.102v-.59l-.726-.14c-.681-.133-.858-.417-1.568-2.448zm-42.495-.13c0 2.064-.122 2.309-1.176 2.577l-.588.14v.59h6.372v-.59l-.59-.14c-1.054-.268-1.176-.513-1.176-2.578v-9.198c0-2.065.122-2.475 1.177-2.63l.589-.085v-.59h-6.372v.587l.588.088c1.054.155 1.176.565 1.176 2.63v9.198zm-17.77-3.246c0-.424.172-.606.52-.606h.782c.462 0 .621.24.984.764.751 1.07 1.748 2.714 2.383 3.586C52.822 43.41 54.693 44 56.776 44c.468 0 .846-.056 1.076-.114v-.349c-.67-.046-1.3-.292-1.71-.646-1.666-1.374-3.146-3.518-5.104-6.6-.128-.174-.08-.193.11-.248 1.345-.395 3.466-1.466 3.466-4.007 0-2.003-1.215-2.923-2.498-3.495-1.158-.516-2.571-.54-4.074-.54H42v.587l.588.088c1.056.155 1.177.565 1.177 2.63v9.198c0 2.065-.121 2.31-1.177 2.578l-.588.14v.59h6.185v-.59l-.588-.14c-1.055-.268-1.176-.513-1.176-2.578V37.26zm1.839-8.535c2.379 0 3.447 1.765 3.447 3.666 0 1.609-.465 2.438-1.11 2.935-.714.516-1.52.616-2.418.616l-1.238-.001c-.348 0-.52-.181-.52-.606V29.48c0-.72.563-.756 1.839-.756zm36.053.984c.177-.28.236-.51.098-.715-.147-.22-.367-.194-.942-.202h-3.527c-.83 0-1.744.154-2.332.79-.505.552-.87 1.211-1.061 1.604l-.622-.161c.27-.87.484-1.627.86-3.022L88.244 28l.247.366c-.453.706-7.096 11.09-8.414 13.134-.17.266-.506.781-.261 1.174.172.275.578.328 1.015.328h3.262c.607 0 1.62-.089 2.406-.645.665-.469 1.133-1.156 1.548-2.08l.597.158c-.364 1.186-.83 2.634-1.099 3.377H75.75l-.248-.383c.428-.67 8.36-13.008 8.81-13.721z"/>
        <g transform="translate(42 28)">
            <mask id="prefix__p" fill="#fff">
                <use xlink:href="#prefix__o"/>
            </mask>
            <path fill="#5B5B5B" d="M0.41 15.931L84.595 15.931 84.595 0.074 0.41 0.074z" mask="url(#prefix__p)"/>
        </g>
    </g>
</svg>
