<?xml version="1.0" encoding="UTF-8"?>
<svg width="191px" height="61px" viewBox="0 0 191 61" version="1.1" xmlns="http://www.w3.org/2000/svg" xmlns:xlink="http://www.w3.org/1999/xlink">
    <!-- Generator: Sketch 56.2 (81672) - https://sketch.com -->
    <title>wellness</title>
    <desc>Created with Sketch.</desc>
    <defs>
        <polygon id="path-1" points="0.0269634783 0.31515 18.3185113 0.31515 18.3185113 16 0.0269634783 16"></polygon>
        <polygon id="path-3" points="0.0785154705 0.695390769 45.3097799 0.695390769 45.3097799 41.6097715 0.0785154705 41.6097715"></polygon>
    </defs>
    <g id="website" stroke="none" stroke-width="1" fill="none" fill-rule="evenodd">
        <g id="官網更新-概念草稿_1440" transform="translate(-444.000000, -6974.000000)">
            <g id="wellness" transform="translate(444.333333, 6974.000000)">
                <path d="M139.438763,12.2745385 C139.043654,14.2543899 138.676435,16.1142503 138.295271,18.0341063 L137.356306,18.0341063 C132.191997,18.0341063 127.032336,18.0525664 121.872676,18.0156461 C121.180073,18.0110311 120.854689,18.1910176 120.803557,18.8832733 C120.771019,19.3401621 120.659458,19.7924358 120.557195,20.3647006 L138.076799,20.3647006 C137.816492,21.739982 137.588723,22.9906574 137.347009,24.2459478 C136.580032,28.2656461 135.854891,32.2945745 135.027486,36.2958127 C134.553355,38.5664115 133.437753,40.4401171 131.062449,41.2569788 C130.704527,41.3815849 130.318715,41.520036 129.946847,41.520036 C126.362975,41.5431112 122.779103,41.5338811 119.065077,41.5338811 C119.441593,39.6740207 119.808812,37.8741558 120.203921,35.9312247 L121.630962,35.9312247 C123.146322,35.9312247 124.661681,35.9450698 126.18169,35.9266096 C127.599434,35.9081495 128.87308,34.9943719 129.156629,33.6513958 C129.677243,31.2238856 130.109539,28.7825304 130.592967,26.2719496 C130.281528,26.2488744 130.044462,26.2165691 129.807397,26.2165691 C126.604689,26.2165691 123.406629,26.2304142 120.203921,26.207339 C119.585691,26.202724 119.381164,26.3780955 119.264956,27.0011256 C118.451496,31.4869428 117.586904,35.9635299 116.736257,40.4401171 C116.64329,40.9477713 116.550323,41.4554255 116.452708,42 L109.986863,42 C110.990905,36.7388564 111.985651,31.5192481 112.998989,26.207339 L96,26.207339 C96.3718674,24.2090275 96.7297898,22.3168618 97.0970089,20.3831607 L114.109943,20.3831607 C114.249394,19.6032193 114.379547,18.8648131 114.532943,18.0433363 L98.6681487,18.0433363 C99.0028294,16.197321 99.3049717,14.4297614 99.6582458,12.6760468 C99.6954325,12.5052904 100.085893,12.3022287 100.313662,12.2976137 C102.186944,12.2653084 104.064875,12.2791535 105.942805,12.2791535 C108.945635,12.2791535 111.957761,12.2653084 114.965238,12.2929986 C115.518391,12.2976137 115.760105,12.1176272 115.815885,11.5868978 C115.862369,11.0700135 115.955335,10.5623593 116.043654,9.96240432 L99.0818513,9.96240432 C99.4490703,8.0056281 99.8023444,6.14576767 100.164915,4.19360648 L101.062045,4.19360648 C106.142684,4.19360648 111.223323,4.18437641 116.294665,4.20283656 C116.926839,4.2074516 117.321948,4.15668618 117.37308,3.36751463 C117.419563,2.58757317 117.665926,1.81686177 117.842563,1 L124.15966,1 C123.99232,2.01530842 123.82498,3.01677172 123.643694,4.13361099 L142,4.13361099 C141.600243,6.15499775 141.228375,8.03331833 140.851859,9.94394417 L138.699677,9.94394417 C133.591148,9.94394417 128.487268,9.95317425 123.378739,9.93009905 C122.760509,9.93009905 122.397939,10.0177848 122.374697,10.7331157 C122.360752,11.2176947 122.193411,11.6884286 122.072555,12.2745385 L139.438763,12.2745385 Z" id="Fill-1" fill="#5B5B5B"></path>
                <path d="M94,3.29251655 C89.4577323,8.65104101 85.0236139,13.7719266 79.7062767,17.9795332 C79.3863352,18.2311508 79.0934311,18.6831307 79.0168254,19.0885147 C78.0570009,23.9671018 77.1377325,28.8596676 76.2094516,33.7475738 C75.9210536,35.2479607 76.6375423,36.1658992 78.120088,36.1658992 C81.5132701,36.1705588 84.9064522,36.1705588 88.3041405,36.1705588 L89.2774836,36.1705588 C88.9800732,37.7827757 88.6195758,39.3018009 88.4438333,40.8394645 C88.3311778,41.8039989 87.9661742,42.0090207 87.0874617,42 C82.8606293,41.948446 78.6337968,41.9344673 74.4069644,41.9903823 C71.6356404,42.027659 69.5087055,40.089271 70.0990201,36.641177 C71.1985372,30.1876498 72.4918218,23.7713992 73.6814633,17.3318506 C74.6232629,12.2482418 75.5380251,7.15531375 76.466306,2.06704531 C76.5293931,1.72223591 76.6150112,1.37742651 76.6961231,1 L82.2477836,1 C81.6664815,4.21045509 81.098698,7.38363349 80.5264084,10.5568119 L80.6976446,10.6639824 C81.8512364,9.3779365 83.0318655,8.11052898 84.1539138,6.79652559 C85.005589,5.80403367 85.7671398,4.74164795 86.5917777,3.72585809 C86.7494953,3.53481505 87.0063498,3.31581448 87.2226482,3.3111549 C89.4036577,3.28319738 91.5891734,3.29251655 94,3.29251655" id="Fill-3" fill="#5B5B5B"></path>
                <path d="M47.5859269,31.8609238 C47.9269283,30.1210451 48.3673884,28.5519239 48.5,26.9597272 C48.6326116,25.4552168 49.4046008,24.8275683 50.7686062,24.3106813 C55.1400541,22.667719 59.3031123,20.5724806 63.3288227,18.241874 C63.6414073,18.0665016 63.9113667,17.6419158 63.9824087,17.2957861 C64.8633288,12.8191754 65.7063599,8.33794957 66.5588633,3.86595389 C66.7341001,2.92448111 66.9140731,1.98300834 67.0987821,1 L73,1 C72.744249,2.50451041 72.5311231,3.97671539 72.2469553,5.43507518 C71.4276049,9.69939304 70.6177267,13.9637109 69.7510149,18.2187986 C69.1021651,21.3755015 68.3775372,24.4952838 66.7625169,27.3704678 C64.8585927,30.7533087 62.0926928,33.2962082 58.9100135,35.4606726 C54.7232747,38.3173964 50.0771313,40.2972582 45.3031123,41.9863711 C45.2320704,42.0140615 45.1420839,41.9909862 45,41.9909862 C45.3031123,40.4726306 45.5683356,38.9773503 45.9093369,37.5005303 C45.9661705,37.2513169 46.2976996,36.9882583 46.5581867,36.8728818 C49.9303112,35.414522 53.1603518,33.720794 56.0872801,31.5240242 C58.3700947,29.8072209 60.4255751,27.8781247 61.6948579,25.2844595 C61.7895805,25.0860118 61.879567,24.8875641 61.9553451,24.6845014 C61.9695535,24.6475809 61.9316644,24.5875851 61.9032476,24.4768236 C57.4228687,27.3750829 52.7009472,29.7887606 47.5859269,31.8609238" id="Fill-5" fill="#5B5B5B"></path>
                <path d="M45,16.050576 C44.5497679,18.4576953 44.1273853,20.7288477 43.700361,23 L0,23 C0.250644662,21.4590408 0.501289324,19.9785113 0.751933987,18.4979818 C0.76585869,18.4425879 0.798349665,18.3871939 0.8076328,18.3267642 C0.942238267,17.6066427 0.858690046,16.53905 1.26714801,16.2318653 C1.77772047,15.8491434 2.68746777,16.0556118 3.42083548,16.0556118 C16.9185147,16.050576 30.4161939,16.050576 43.9185147,16.050576 L45,16.050576 Z" id="Fill-7" fill="#5B5B5B"></path>
                <path d="M66,46.0449132 L69.6037082,46.0449132 C69.8286471,49.7392177 70.0582722,53.4115061 70.2832111,57.0837945 L70.4331703,57.1234236 C70.8689894,56.2471821 71.3094947,55.3753438 71.7453138,54.4946991 C72.7950285,52.345926 73.8775469,50.2015562 74.8850856,48.030767 C75.5599022,46.5777032 76.6564792,45.8908004 78.3435208,46.0140906 C78.7277914,46.04051 79.1120619,46.0184939 79.5853708,46.0184939 C79.796251,49.6643629 80.002445,53.2617965 80.208639,56.8548269 C80.2648737,56.8680366 80.3211084,56.876843 80.3726569,56.8856495 C81.1130807,55.3489245 81.8488183,53.8166027 82.5798696,52.2798777 C83.4889976,50.3512658 84.3840668,48.4138474 85.3166259,46.4984452 C85.4197229,46.2914937 85.7290139,46.0537196 85.9539527,46.04051 C86.9240016,45.9876713 87.8940505,46.0184939 89,46.0184939 C88.2783211,47.5199931 87.6035045,48.9334278 86.9240016,50.3468626 C85.3072535,53.684506 83.6811328,57.0221494 82.0831296,60.3685993 C81.8769356,60.8001152 81.6426243,61.0202764 81.099022,60.9982603 C80.0118174,60.9586312 78.9292991,60.9586312 77.8420945,60.9982603 C77.2750611,61.0202764 77.1204156,60.7825023 77.0922983,60.3201638 C76.9751426,58.1581811 76.8486145,56.0006016 76.7267726,53.8386188 C76.6799104,53.0856676 76.6236756,52.3327164 76.4221679,51.5225232 C76.0707009,52.2094261 75.7192339,52.8919258 75.3865118,53.5788286 C74.2852486,55.8288758 73.1699267,58.0657134 72.1061532,60.3289703 C71.8624694,60.835341 71.5625509,61.0202764 70.9720864,60.9982603 C69.702119,60.9586312 68.4274654,60.9894538 67.0684597,60.9894538 C66.7076202,55.9917951 66.3561532,51.0601848 66,46.0449132" id="Fill-9" fill="#5B5B5B"></path>
                <g id="Group-13" transform="translate(125.000000, 45.000000)">
                    <mask id="mask-2" fill="white">
                        <use xlink:href="#path-1"></use>
                    </mask>
                    <g id="Clip-12"></g>
                    <path d="M5.93910261,4.2953 C5.40247652,6.8989 4.86585043,9.5071 4.32459826,12.1107 C4.09792,13.2285 3.89437217,14.3555 3.62605913,15.4641 C3.57979826,15.6527 3.29760696,15.9057 3.11256348,15.9149 C2.10407652,15.9563 1.09558957,15.9333 0.0269634783,15.9333 C0.494198261,13.7575 0.947554783,11.6599 1.4009113,9.5669 C1.94678957,7.0139 2.49729391,4.4609 3.03854609,1.9079 C3.33461565,0.5463 3.60755478,0.3209 5.04626783,0.3209 C7.39169391,0.3163 7.38244174,0.3209 8.24289391,2.4737 C9.50581565,5.6339 10.7826157,8.7895 12.0501635,11.9405 C12.0871722,12.0325 12.1380591,12.1199 12.2814678,12.4373 C12.5682852,11.1079 12.8088417,9.9947 13.0447722,8.8815 C13.6045287,6.1905 14.1457809,3.4995 14.7286678,0.8177 C14.7703026,0.6245 15.0386157,0.3531 15.2097809,0.3439 C16.2182678,0.2979 17.2267548,0.3209 18.3185113,0.3209 C17.7495026,3.0901 17.2082504,5.7719 16.6484939,8.4491 C16.1812591,10.7123 15.6585113,12.9663 15.2375374,15.2341 C15.112633,15.8919 14.8396939,16.0161 14.256807,15.9885 C13.405607,15.9517 12.554407,15.9333 11.707833,15.9977 C11.0971896,16.0391 10.8381287,15.7861 10.6253287,15.2663 C9.20049391,11.7289 7.74790261,8.2145 6.30456348,4.6863 C6.23979826,4.5437 6.17040696,4.4011 6.10101565,4.2585 C6.04550261,4.2677 5.99461565,4.2815 5.93910261,4.2953" id="Fill-11" fill="#5B5B5B" mask="url(#mask-2)"></path>
                </g>
                <path d="M32.0525422,53.7944249 C33.9685596,53.7944249 35.7230392,53.8425266 37.4775188,53.7813062 C38.7563594,53.7332045 39.4114848,53.1559836 39.6627657,52.0059148 C39.949944,50.742151 40.2101993,49.4783872 40.4659674,48.2102505 C40.6319923,47.3619108 40.3268654,46.9814698 39.4249462,46.9639782 C38.1236698,46.9421138 36.8134191,46.9158765 35.5121427,46.972724 C34.5788134,47.01208 33.6185611,47.2613344 33.3403572,48.2496065 C32.8467696,50.0424894 32.4922839,51.8703554 32.0525422,53.7944249 M37.6121336,54.7564596 C38.7070006,56.9035462 39.7210988,58.8800903 40.7980172,60.9921939 C39.586484,60.9921939 38.464694,61.0184312 37.342904,60.9747023 C37.1723919,60.9659565 36.9614954,60.6511088 36.8493164,60.4412103 C35.9832945,58.7838868 35.0768881,57.139682 34.3006094,55.4342568 C33.8204833,54.3803915 32.9679229,54.8395444 32.2544644,54.7914427 C31.626262,54.7477138 31.7608768,55.3424262 31.6756208,55.7053757 C31.2852379,57.445784 30.9083164,59.1818194 30.5134463,60.9615837 L27,60.9615837 C27.1256405,60.3100238 27.2423066,59.6890741 27.3724343,59.0681244 C28.1173029,55.5523247 28.8397356,52.0321522 29.6294758,48.5207254 C30.0692175,46.5704186 30.8769063,46.0019435 32.9320256,46.0019435 C35.8352182,46.0019435 38.7339236,45.9975706 41.6416033,46.0019435 C43.4723646,46.0063164 44.266592,46.9639782 43.9210806,48.6956408 C43.6832611,49.8632011 43.4903133,51.0351343 43.2390323,52.2026947 C42.9159568,53.7288316 41.6819878,54.7127308 40.0755844,54.7520867 C39.3307159,54.7739512 38.5858473,54.7564596 37.6121336,54.7564596" id="Fill-14" fill="#5B5B5B"></path>
                <path d="M165.447092,29 L171.029925,29 C170.794362,30.1823967 170.577645,31.3196637 170.346793,32.4524178 C170.243146,32.9759217 170.101808,33.4903996 169.988738,34.0093905 C169.687218,35.3948706 170.450441,36.3471061 171.929774,36.356132 C175.618684,36.3741839 179.312305,36.3651579 183.005926,36.3651579 L184,36.3651579 C183.703191,37.8138195 183.448784,39.1992996 183.114285,40.5667278 C183.062461,40.7517594 182.586625,40.9683816 182.308661,40.9728946 C178.167471,40.9954594 174.030992,41.0225372 169.889802,40.9683816 C168.768524,40.9548428 167.576577,40.8600705 166.535391,40.4900074 C164.556665,39.785985 163.722774,38.0981363 164.080829,35.6656484 C164.38706,33.5535811 164.87703,31.4685915 165.296332,29.3700631 C165.319888,29.248213 165.390557,29.126363 165.447092,29" id="Fill-16" fill="#5B5B5B"></path>
                <path d="M187,23.0808173 C186.712267,24.5758173 186.442518,26.0408173 186.136802,27.4958173 C186.100835,27.6558173 185.876044,27.8058173 185.714194,27.8858173 C185.579319,27.9508173 185.399486,27.9008173 185.233141,27.9008173 L159.930636,27.9008173 L159,27.9008173 C159.319204,26.2158173 159.606936,24.6608173 159.908157,23.0808173 L187,23.0808173 Z" id="Fill-18" fill="#5B5B5B"></path>
                <path d="M52.7078059,48.6829942 C52.6415264,48.659854 52.5752468,48.6367139 52.5089673,48.6135737 C51.1455027,50.7748654 49.782038,52.936157 48.4517131,55.0511684 C50.3596168,55.2038935 52.1775697,55.3519906 54.0002568,55.5047157 C53.5836426,53.2832596 53.1433571,50.9831269 52.7078059,48.6829942 M41,60.9843074 C42.988386,57.9529454 44.8536814,55.0928207 46.723711,52.241952 C47.8883371,50.4647871 49.0576974,48.6922503 50.2412605,46.9243414 C51.2591247,45.3878343 53.2096367,44.661233 54.999184,45.1518046 C55.1696171,45.1980849 55.3637214,45.4202305 55.4015955,45.5914678 C56.6088298,50.6175122 57.8018614,55.6481847 58.994893,60.6788572 C59.0090957,60.7482777 58.9901587,60.8315823 58.9806902,60.9843074 C57.8255326,60.9843074 56.6798436,61.0074476 55.5388888,60.9611673 C55.3447844,60.9519112 55.1175403,60.6742292 54.9755128,60.4705957 C54.5399615,59.8041589 54.1848926,59.0775576 53.7019989,58.448145 C52.4379535,56.8237052 50.6531404,56.0878479 48.6410832,55.8518182 C48.3759651,55.819422 47.9593509,56.0508236 47.793652,56.2868533 C46.8420673,57.6382391 45.9283566,59.0173932 45.0288487,60.4058032 C44.7637306,60.8223262 44.4702069,61.0213317 43.9447049,60.9981915 C43.0309942,60.9565392 42.107815,60.9843074 41,60.9843074" id="Fill-20" fill="#5B5B5B"></path>
                <path d="M56.5332607,19 C56.8055611,13.5505936 56.3824482,8.28208036 55,3 L58.8876119,3 C60.446008,3 60.4585757,2.99547781 60.8314178,4.61899391 C61.6525082,8.16449981 62.0798104,11.7642737 61.9876472,15.4273601 C61.9834579,15.6715659 61.8577808,16.0378745 61.6818329,16.1328434 C60.0061381,17.1006218 58.3094972,18.0186546 56.5332607,19" id="Fill-22" fill="#5B5B5B"></path>
                <path d="M90,30.9971936 C88.0542341,30.9971936 86.1941009,31.0103683 84.338725,30.9796273 C84.1484301,30.9752357 83.8439581,30.7249165 83.7963844,30.549254 C82.8924833,26.7725083 81.7126546,23.0748108 80,19.4956855 C81.3891532,18.3494871 82.773549,17.2076803 84.2435775,16 C87.2882969,20.6550586 89.4005709,25.5121292 90,30.9971936" id="Fill-24" fill="#5B5B5B"></path>
                <path d="M146,16 C146.365252,13.9598185 146.662865,12.1358774 147.032626,10.3213381 C147.113793,9.93586602 147.375332,9.49398339 147.677454,9.2683412 C150.842971,6.96961134 153.801061,4.42643578 156.344297,1.38966791 C156.502122,1.20163275 156.781698,1.01829846 156.998143,1.01359758 C158.919098,0.990093189 160.844562,1.00419583 163,1.00419583 C158.138992,7.10123596 152.434748,11.839722 146,16" id="Fill-26" fill="#5B5B5B"></path>
                <path d="M88,61 C88.3449821,59.3252046 88.6765233,57.7211129 89.0215054,56.1126023 C89.5501792,53.6070376 90.0564516,51.105892 90.6164875,48.6047463 C91.0645161,46.6250409 91.8933692,46.001964 93.9543011,46.001964 C96.6648746,45.997545 99.375448,46.001964 102.086022,46.001964 L103,46.001964 C102.932796,46.3599018 102.883513,46.6338789 102.820789,46.9918167 L98.9139785,46.9918167 C97.7983871,46.9918167 96.6783154,46.9387889 95.562724,47.0227496 C95.1908602,47.0492635 94.6084229,47.3585925 94.5277778,47.6502455 C94.0842294,49.307365 93.7706093,50.9954173 93.3808244,52.8116203 L97.0501792,52.8116203 L100.692652,52.8116203 C100.594086,53.1828151 100.522401,53.4567921 100.437276,53.7705401 C98.2643369,53.7705401 96.1137993,53.792635 93.9632616,53.7572831 C93.3763441,53.7484452 93.1209677,53.9119476 93.0089606,54.4952537 C92.7401434,55.9535188 92.3951613,57.407365 92.0949821,58.8656301 C91.8799283,59.8864157 92.0367384,60.0675941 93.1030466,60.0720131 L100.083333,60.0720131 C100.03853,60.412275 100.002688,60.686252 99.9578853,61 L88,61 Z" id="Fill-28" fill="#5B5B5B"></path>
                <path d="M155.029526,60.0142603 C155.078735,60.6787248 154.98479,61.0043564 154.32717,61 C150.685655,60.9735534 147.053087,60.9867547 143.416045,60.9867547 C143.317626,60.9867547 143.210259,60.9647526 143,60.9427504 C143.299732,59.4950099 143.590516,58.0780724 143.890248,56.6655353 C144.471816,53.9416709 145.053385,51.2222069 145.634954,48.5027429 C146.019684,46.7293708 146.923352,46.0077007 148.739636,46.0033003 C151.580376,45.9988999 154.416642,45.9988999 157.257381,46.0033003 C157.490009,46.0033003 157.722636,46.0253025 158,46.0429042 C157.93737,46.3641353 157.88816,46.6413623 157.816582,46.988996 L154.474799,46.988996 C153.199821,46.988996 151.929317,46.9977969 150.649866,46.9845956 C149.969878,46.9757947 149.558306,47.2266191 149.419624,47.9218866 C149.106472,49.4972395 148.748583,51.068192 148.381748,52.7535555 L155.611095,52.7535555 C155.561885,53.1143906 155.53057,53.3696153 155.485834,53.7392512 L154.649269,53.7392512 C152.712198,53.7392512 150.775127,53.7480521 148.838055,53.7348508 C148.42201,53.7304504 148.135699,53.7788551 148.041754,54.2585016 C147.733075,55.8426554 147.384134,57.4180083 147.079928,59.0065625 C146.914405,59.8558449 147.05756,60.0098599 147.956755,60.0098599 C150.028035,60.0186607 152.099314,60.0142603 154.170593,60.0142603 L155.029526,60.0142603 Z" id="Fill-30" fill="#5B5B5B"></path>
                <path d="M25.5507463,52.7786904 C25.658209,53.538532 25.4208955,53.7947577 24.7,53.7859223 C22.7343284,53.7417455 20.7686567,53.7815046 18.7985075,53.7594162 C18.3597015,53.7549985 18.1537313,53.8477699 18.0552239,54.3292974 C17.7597015,55.8931575 17.3791045,57.4437645 17.0477612,59.0032069 C16.8731343,59.8248961 17.0701493,60.0590333 17.9253731,60.0590333 C20.0477612,60.0678687 22.1791045,60.063451 24.3059701,60.063451 L25.1343284,60.063451 C25.0447761,60.4301188 24.9731343,60.6995975 24.8970149,61 L13,61 C13.3313433,59.3566216 13.6492537,57.7574201 13.980597,56.1626362 C14.5,53.6798979 15.0328358,51.2015773 15.561194,48.7232567 C15.9820896,46.7264636 16.8686567,46.0019634 18.9014925,46.0019634 C21.6373134,45.9975457 24.3731343,46.0019634 27.1134328,46.0019634 L28,46.0019634 C27.9104478,46.3686312 27.8522388,46.6513629 27.7716418,46.9871069 L20.8895522,46.9871069 C19.7522388,46.9871069 19.5955224,47.1108021 19.3447761,48.2284761 C19.0223881,49.7039825 18.7134328,51.1839065 18.3686567,52.7786904 L25.5507463,52.7786904 Z" id="Fill-32" fill="#5B5B5B"></path>
                <path d="M173.817412,46.9794633 L164.982984,46.9794633 C163.644009,46.9794633 163.569101,47.0501721 163.297561,48.2875754 C163.030702,49.5426558 162.749798,50.7888977 162.464212,52.0439782 C162.258216,52.9543534 162.370578,53.082513 163.381832,53.0869323 C165.385613,53.0913516 167.389394,53.0869323 169.388494,53.0869323 C171.542091,53.0913516 172.281804,53.8426322 171.991537,55.8268967 C171.841722,56.8300772 171.612317,57.8332577 171.312686,58.8099225 C170.924102,60.0473257 169.969029,60.913508 168.62069,60.9488624 C164.762943,61.0416677 160.905195,60.9797975 157.019358,60.9797975 C156.935087,60.3345801 157.108311,60.0340679 157.89016,60.0429064 C160.643018,60.0826801 163.386513,60.0650029 166.139372,60.0561643 C167.277033,60.0561643 167.450257,59.9147468 167.684343,58.8408576 C167.969929,57.5592613 168.246151,56.2776651 168.527055,55.0004881 C168.672189,54.35969 168.452148,54.0901129 167.712434,54.10779 C165.797605,54.1475637 163.878095,54.1254672 161.963267,54.1210479 C161.546593,54.1210479 161.129919,54.10779 160.713244,54.0680164 C159.556857,53.9486953 158.737554,53.2858007 158.868642,52.2295886 C159.055911,50.7137696 159.388314,49.189112 159.875214,47.7351632 C160.235708,46.6745318 161.251644,46.0469916 162.450167,46.0293144 C166.228325,45.9807021 170.011164,46.0072179 173.789322,46.0072179 C173.836139,46.0072179 173.887638,46.0469916 174,46.1000232 C173.943819,46.3563424 173.89232,46.6303388 173.817412,46.9794633" id="Fill-34" fill="#5B5B5B"></path>
                <path d="M173,60.9805829 C173.074908,60.6621544 173.13109,60.4056425 173.215361,60.0651009 L175.425156,60.0651009 C177.728587,60.0651009 180.032017,60.0474104 182.340129,60.0739461 C183.13603,60.0827913 183.590161,59.7864759 183.74466,59.0434759 C184.030247,57.6547737 184.35329,56.2793392 184.648241,54.8950596 C184.774649,54.3024287 184.470334,54.1034108 183.857022,54.1122561 C181.970269,54.1343692 180.083516,54.1255239 178.1874,54.1211013 C177.775404,54.1211013 177.358727,54.1166787 176.942049,54.0857204 C175.528155,53.9795775 174.713527,53.1702383 174.896116,51.8434527 C175.06466,50.5785837 175.359612,49.3137148 175.757562,48.0974946 C176.146149,46.9166554 177.063775,46.06309 178.416807,46.0365543 C182.246494,45.970215 186.076181,46.0144412 189.933958,46.0144412 C190.135274,46.7441733 189.882459,46.9962626 189.09124,46.9874173 C186.33836,46.9520364 183.590161,46.9962626 180.837281,46.9608816 C179.989881,46.9476138 179.535749,47.2527744 179.376569,48.0178875 C179.090981,49.3756314 178.767939,50.7289528 178.496397,52.0866967 C178.332535,52.8960359 178.510442,53.0817859 179.381251,53.0862085 C181.441229,53.0950538 183.496526,53.0817859 185.551822,53.0906311 C187.6633,53.0950538 188.5107,54.1122561 188.047205,56.084744 C187.82248,57.0267618 187.630528,57.9776248 187.326213,58.8975295 C186.937626,60.0783687 186.010636,60.9142437 184.741876,60.945202 C180.86069,61.0424996 176.974822,60.9805829 173,60.9805829" id="Fill-36" fill="#5B5B5B"></path>
                <path d="M14,46.0705342 C13.9038902,46.4274665 13.8306636,46.700674 13.7391304,47.0223537 L8.65446224,47.0223537 C7.65217391,51.6977266 6.6590389,56.3290337 5.66132723,61 L1.94050343,61 C2.94279176,56.3334403 3.93135011,51.7153529 4.9382151,47.0311669 L0,47.0311669 C0.0274599542,46.4935651 -0.0640732265,45.9956225 0.736842105,46 C5.02059497,46.0132487 9.31350114,46.0044356 13.597254,46.0044356 C13.7025172,46.0044356 13.8032037,46.0396882 14,46.0705342" id="Fill-38" fill="#5B5B5B"></path>
                <path d="M105.935903,60.0192038 L111.98263,60.0192038 C112.070197,60.7315634 111.835149,61.0085922 111.083917,60.9997976 C108.323254,60.9602221 105.562592,60.9822085 102.79732,60.9822085 C102.562272,60.9822085 102.318006,60.9602221 102,60.9426329 C102.566881,58.3306477 103.106109,55.7714299 103.663772,53.212212 C104.133868,51.0223658 104.645443,48.8413142 105.087887,46.651468 C105.18928,46.167767 105.364414,45.9874784 105.880598,46.0006703 C106.862269,46.0314513 107.843941,46.0094649 108.977702,46.0094649 C107.963769,50.6837751 106.963662,55.2921262 105.935903,60.0192038" id="Fill-40" fill="#5B5B5B"></path>
                <path d="M118.065621,60.077469 L124,60.077469 C123.957204,60.4012419 123.919163,60.6762271 123.881122,61 L114,61 C115.107941,55.9970432 116.215882,51.0118273 117.333333,46 L121.180219,46 C120.143604,50.7013601 119.1165,55.3450621 118.065621,60.077469" id="Fill-42" fill="#5B5B5B"></path>
                <path d="M159.822954,29 L165,29 C164.47153,33.7783214 159.48532,39.202484 154,41 C154.293594,39.4463681 154.577402,37.9333835 154.880783,36.4203989 C154.915036,36.2442604 155.037367,36.0726383 155.169484,35.9371472 C158.379448,32.5679338 158.379448,32.5724501 159.822954,29" id="Fill-44" fill="#5B5B5B"></path>
                <path d="M179,28.0159353 C177.935465,30.3584002 176.980583,32.4780201 175.998287,34.5820926 C175.90691,34.773843 175.63735,34.9707759 175.44546,34.9759584 C174.019989,35.0122355 172.594517,34.9966881 171,34.9966881 C171.246716,34.4680788 171.438607,34.0845779 171.607653,33.6907121 C172.320388,32.0116001 173.04683,30.332488 173.727584,28.6378286 C173.910337,28.186956 174.09309,27.9900231 174.549971,28.000388 C175.929754,28.0418475 177.309537,28.0159353 179,28.0159353" id="Fill-46" fill="#5B5B5B"></path>
                <path d="M185,28.0045981 C183.948335,30.3612473 183.011481,32.4843079 182.037887,34.5917959 C181.941447,34.7994302 181.610792,34.9707285 181.381171,34.9759193 C179.966705,35.0122553 178.556831,34.9966828 177,34.9966828 C177.261768,34.4308793 177.491389,33.9637022 177.698048,33.4913342 C178.414466,31.8354507 179.107922,30.1743764 179.84271,28.5340656 C179.948335,28.300477 180.246843,28.0357433 180.462687,28.0305524 C181.867968,27.9838347 183.282434,28.0045981 185,28.0045981" id="Fill-48" fill="#5B5B5B"></path>
                <g id="Group-52" transform="translate(145.000000, 0.000000)">
                    <mask id="mask-4" fill="white">
                        <use xlink:href="#path-3"></use>
                    </mask>
                    <g id="Clip-51"></g>
                    <path d="M30.4907515,17.0206292 L28.3392427,17.0206292 C28.5257372,15.9893677 28.7031343,15.0087485 28.8850801,14.00511 L31.0638807,14.00511 C30.868289,15.0363715 30.6772459,16.0308023 30.4907515,17.0206292 L30.4907515,17.0206292 Z M23.6086526,17.0206292 L21.5617627,17.0206292 C21.7209652,16.1735215 21.9074596,15.38166 22.0029812,14.5805908 C22.0575649,14.0879792 22.2440593,13.9130331 22.7171183,13.9544677 C23.1674341,13.9866946 23.6222986,13.9590715 24.1908791,13.9590715 C23.9907388,15.0317677 23.8042443,16.0031792 23.6086526,17.0206292 L23.6086526,17.0206292 Z M20.5428663,7.99248692 C23.2311152,8.10297923 25.9284612,8.02471385 28.7486207,8.02471385 C28.6576478,8.54955231 28.5712236,9.00533308 28.4938967,9.47032154 L18.3504198,9.47032154 C18.8098329,8.42064462 19.396608,7.94184462 20.5428663,7.99248692 L20.5428663,7.99248692 Z M35.6944006,14.5023254 C35.7489844,14.2813408 36.0764868,14.0235254 36.3084676,13.9866946 C36.8042699,13.9038254 37.3182667,13.9590715 37.9095904,13.9590715 C37.7412906,14.8660292 37.5502475,15.6302677 37.4638233,16.4037138 C37.4092396,16.9331562 37.1954533,17.1081023 36.6951024,17.0712715 C36.2220434,17.0390446 35.7398871,17.0666677 35.203147,17.0666677 C35.3668982,16.1412946 35.485163,15.3126023 35.6944006,14.5023254 L35.6944006,14.5023254 Z M34.3434533,3.24592154 C34.5208504,2.33436 34.6709557,1.53789462 34.8301582,0.695390769 L30.1723464,0.695390769 C30.049533,1.32151385 29.8857818,1.90620231 29.8311981,2.50009846 C29.781163,3.11241 29.5400848,3.30577154 28.9169206,3.30116769 C25.8647802,3.26894077 22.8171885,3.28735615 19.7695968,3.28735615 L18.8871598,3.28735615 C18.6369844,4.58103692 18.3640657,5.77343308 18.1730226,6.97043308 C18.0865984,7.53670615 17.8455203,7.67942538 17.3178775,7.66561385 C16.1625219,7.62878308 14.9980689,7.62878308 13.8381646,7.67021769 C13.5606973,7.68402923 13.2150003,7.84056 13.0330545,8.04773308 C9.95362233,11.61111 6.33290144,14.5299485 2.43471324,17.0988946 C1.6205059,17.6283369 1.14744689,18.1807985 1.0155362,19.1798331 C0.80174992,20.7589523 0.433309729,22.3150523 0.0785154705,24.11976 C1.68873557,23.2174062 3.10336396,22.4163369 4.68174354,21.5277946 C4.02673876,25.0267177 3.39447719,28.3322792 2.78041021,31.6424446 C2.16179458,34.9480062 1.56592217,38.2535677 0.947306539,41.6097715 L7.26537352,41.6097715 C7.72933525,39.02241 8.17965104,36.4856908 8.64361276,33.9443677 C9.6534118,28.4565831 10.6814054,22.9780062 11.6730099,17.4948254 C11.8367611,16.5832638 12.1051311,15.8236292 12.873852,15.20211 C13.7744836,14.4793062 14.5568504,13.5999715 15.3619604,12.7528638 C16.2944325,11.7676408 17.1905155,10.7501908 18.245801,9.59002154 C17.4725314,13.6966523 16.7401997,17.6053177 16.0033193,21.5231908 C16.2080083,21.5646254 16.2853352,21.5968523 16.3672108,21.5968523 C24.4637978,21.5968523 32.5603847,21.5968523 40.6615203,21.60606 C41.1027388,21.6106638 41.252844,21.4495292 41.330171,21.0121638 C41.7941327,18.3327254 42.2944836,15.6578908 42.7811885,12.9830562 C42.9858775,11.85051 43.2042124,10.71336 43.4407419,9.46111385 L33.2563273,9.46111385 C33.4610163,8.02471385 33.4610163,8.02471385 34.7391853,8.02471385 L43.4816797,8.02471385 L44.3277276,8.02471385 C44.6643273,6.39034846 44.9736351,4.88489077 45.3102348,3.24592154 L34.3434533,3.24592154 Z" id="Fill-50" fill="#5B5B5B" mask="url(#mask-4)"></path>
                </g>
            </g>
        </g>
    </g>
</svg>