<svg xmlns="http://www.w3.org/2000/svg" width="192" height="48" viewBox="0 0 192 48">
    <path fill="#5B5B5B" fill-rule="evenodd" d="M2.445 8.986c1.948.394 2.203-.159 1.64 2.404-.245 1.113-.035 1.315 1.076 1.06 3.868-.886 7.71-1.93 11.614-2.603 2.105-.363 4.367-.388 6.472-.042 3.993.656 6.507 3.862 6.848 7.974.269 3.244-.947 5.766-3.735 7.288-1.938 1.058-4.1 1.736-6.21 2.437-1.129.374-1.946-.192-2.395-1.293-.217-.531-.027-.842.508-.992.94-.263 1.88-.524 2.814-.808 2.434-.739 3.503-2.178 3.533-4.73.042-3.471-1.592-5.822-4.575-6.678-1.692-.485-3.316-.148-4.927.314-.25.072-.508.477-.578.771-.9 3.772-1.778 7.55-2.62 11.335-.077.35.04.827.236 1.14 2.014 3.244 4.057 6.47 6.104 9.692.738 1.162 1.313 1.349 2.635.917 2.665-.87 5.328-1.745 7.994-2.612 1.038-.337 1.332-.054 1.174 1.01-.175 1.179-.746 1.892-1.924 2.29-2.684.908-5.334 1.917-7.98 2.932-1.278.49-2.291.242-3.254-.722-1.918-1.922-3.89-3.788-5.844-5.673-.263-.253-.551-.48-1.014-.881-.56 2.426-1.063 4.602-1.563 6.779-.459 1.997-.928 3.991-1.361 5.994-.145.668-.464.96-1.169.935-1.23-.041-2.462.002-3.693-.015-.916-.014-1.129-.277-.943-1.179.949-4.601 1.906-9.201 2.866-13.8 1.102-5.278 2.212-10.554 3.312-15.832.227-1.087-.01-1.31-1.1-1.06-1.781.406-3.558.83-5.34 1.233-.898.203-1.176-.07-.993-.97.397-1.947.832-3.886 1.194-5.84.14-.76.521-.912 1.198-.775zm52.487 16.805c-.004.343 0 .687 0 1.174 1.064 0 2.09-.007 3.117.003.63.006 1.127.18 1.104.96-.018.624-.328.906-.948.901-1.063-.008-2.127-.002-3.44-.002.945 1.17 1.75 2.188 2.576 3.187.501.605 1.036 1.183 1.555 1.773.455.516.444 1.032-.061 1.49-.539.489-.968.212-1.357-.25-.781-.928-1.57-1.849-2.357-2.773l-.19.102c0 2.45.004 4.9-.001 7.35-.002 1.054-.206 1.256-1.259 1.303-2.068.091-2.155.01-2.155-1.998V33.17l-.243-.232c-.077.189-.113.413-.239.562-1.11 1.322-2.232 2.636-3.362 3.942-.382.44-.822.905-1.42.345-.624-.585-.412-1.132.139-1.694 1.847-1.883 3.255-4.063 4.266-6.496.093-.224.16-.46.266-.769-1.267 0-2.458-.013-3.65.005-.617.01-1.05-.126-1.061-.861-.013-.753.422-.998 1.074-1.002 1.378-.01 2.756-.004 4.23-.004 0-.846.019-1.592-.005-2.338-.021-.681.321-.974.963-1.003l.094-.003c2.565-.046 2.392.025 2.364 2.17zm69.695-13.597c3.408.007 6.816.005 10.224 0 .879 0 1.224.424 1.213 1.298-.029 2.496-.006 4.992-.012 7.487-.003 1.128-.241 1.35-1.414 1.358-.843.005-1.685 0-2.612 0 0 1.054-.003 1.995.003 2.935.001.247.032.493.057.848.881 0 1.725.014 2.568-.004.63-.014 1.062.171 1.044.89-.018.696-.432.91-1.067.894-.815-.02-1.631-.005-2.525-.005v8.233c.819-.305 1.593-.586 2.361-.883.59-.229 1.16-.45 1.47.384.294.788-.103 1.203-.782 1.44-3.653 1.28-7.306 2.56-10.967 3.818-.58.2-1.217.324-1.43-.539-.198-.806.226-1.196.953-1.32.873-.148 1.114-.572 1.054-1.493-.242-3.746-.373-7.5-.546-11.25-.05-1.081.195-1.351 1.277-1.384.252-.008.505.002.757-.002.824-.013 1.2.348 1.153 1.213-.155 2.93-.284 5.862-.4 8.794-.038.971-.006 1.945-.006 2.981 1.595-.298 1.706-.319 1.713-1.62v-13.93c-1.349 0-2.603.004-3.856 0-1.262-.004-1.446-.18-1.447-1.397-.002-2.495.024-4.991-.014-7.487-.013-.904.37-1.261 1.23-1.26zm58.83.34v4.034h6.136c.475 0 .95-.002 1.425.002.66.005 1.009.341.98.999-.026.625-.406.86-1.012.856-2.184-.011-4.369-.004-6.554-.005h-.974v6.287c1.868 0 3.659.01 5.45-.002 2.704-.018 2.36-.026 2.364 2.348.006 4.227.003 8.454 0 12.681 0 1.056-.199 1.256-1.263 1.294-.221.008-.443.003-.665 0-1.314-.014-1.478-.174-1.493-1.456-.003-.214 0-.43 0-.69h-9.924c-.035.09-.082.17-.099.257-.11.565-.083 1.537-.345 1.622-.772.248-1.664.213-2.495.133-.227-.022-.571-.589-.574-.908-.037-4.763-.025-9.527-.026-14.29 0-.736.415-.993 1.094-.99 1.423.007 2.847.002 4.415.002v-3.223c0-3.06-.004-6.12.002-9.18.002-1.267.212-1.462 1.501-1.466 1.92-.005 2.049.006 2.057 1.694zm-75.287-.569c-.024 1.673-.007 3.346-.007 5.149h4.856c.316 0 .633-.004.95.001.647.011 1.015.33.998.992-.016.628-.396.884-.997.882-1.393-.004-2.786 0-4.178 0h-1.155c.12.643.196 1.223.34 1.786 1.166 4.568 2.963 8.86 5.607 12.78.123.184.362.392.336.554-.079.483-.263.947-.406 1.42-.393-.147-.97-.177-1.148-.459-1.531-2.43-2.994-4.902-4.466-7.368-.222-.372-.388-.777-.58-1.167l-.157.03c0 4.366.016 8.731-.024 13.097-.004.459-.277 1.264-.53 1.307-.771.134-1.606.038-2.385-.123-.166-.035-.279-.718-.28-1.103-.02-4.463-.013-8.925-.147-13.454-.27.537-.494 1.104-.818 1.606-1.915 2.972-3.851 5.931-5.789 8.889-.31.472-.692.91-1.31.462-.638-.462-.616-1.013-.167-1.639 2.143-2.986 4.061-6.113 5.442-9.525.802-1.984 1.4-4.052 2.076-6.086.098-.293.126-.61.204-1.007h-4.339c-.632.002-1.247-.007-1.273-.88-.027-.902.555-1.005 1.26-.999 1.578.012 3.156.004 4.848.004 0-1.696-.003-3.33.002-4.965.003-1.133.175-1.297 1.333-1.304.253-.001.507.013.76-.002.799-.047 1.156.308 1.144 1.122zm-38.593 13.74v1.152c1.79 0 3.508-.002 5.224.003.313.001.714-.077.917.083.292.232.627.668.594.98-.031.296-.499.759-.796.777-1.379.083-2.765.037-4.148.038h-1.114c1.187 2.764 2.85 5.031 4.877 7.043.358.356.734.693 1.103 1.037.505.47.553.992.098 1.502-.452.505-.912.288-1.307-.102-1.572-1.549-3.136-3.105-4.697-4.663-.216-.215-.404-.456-.751-.852 0 2.523-.038 4.805.018 7.085.024.94-.379 1.26-1.219 1.244-.125-.003-.251-.001-.377 0-1.717.007-1.829-.103-1.83-1.799v-6.26c-.865.962-1.56 1.796-2.318 2.566-1.062 1.076-2.167 2.11-3.265 3.151-.506.48-1.062.907-1.678.171-.572-.684-.105-1.15.396-1.592 2.381-2.109 4.375-4.536 5.926-7.327.195-.35.369-.71.624-1.204-1.504 0-2.872-.016-4.24.007-.658.01-1.132-.15-1.129-.918.003-.756.508-.96 1.135-.964 1.473-.012 2.947-.004 4.55-.004 0-.805.01-1.552-.003-2.3-.013-.71.335-1.019 1.02-1.078 2.234-.192 2.389-.058 2.39 2.224zm23.38-13.003v4.41c1.216 0 2.318.002 3.421 0 .625-.003 1.151.108 1.17.9.02.832-.488.992-1.18.982-1.104-.016-2.21-.004-3.48-.004.779 1.908 1.488 3.722 2.26 5.51.563 1.304 1.21 2.573 1.818 3.858.094.2.206.393.279.6.22.631-.066 1.128-.626 1.272-.284.073-.846-.21-1.004-.49-.682-1.209-1.26-2.477-1.878-3.722-.182-.366-.376-.727-.78-1.086v.933c0 4.592.015 9.184-.024 13.775-.004.467-.27 1.287-.521 1.33-.77.134-1.604.033-2.38-.132-.167-.035-.272-.722-.273-1.11-.02-4.145-.012-8.29-.012-12.726-.253.493-.38.751-.516 1.005-1.045 1.947-2.084 3.898-3.145 5.836-.3.55-.699 1.084-1.415.589-.655-.453-.556-1.045-.18-1.666 2.243-3.717 3.734-7.723 4.576-11.976.11-.556.195-1.118.313-1.8-1.272 0-2.493-.011-3.714.004-.704.009-1.295-.086-1.27-.989.022-.864.63-.895 1.268-.894 1.325.004 2.65.001 4.083.001 0-1.672-.003-3.277 0-4.881.003-1.21.173-1.382 1.354-1.391 1.784-.014 1.855.056 1.855 1.862zm52.726 7.04c.679-.01 1 .281.999.947-.002 2.55-.005 5.098-.001 7.647.001.71-.398.91-1.037.903-1.45-.016-2.9-.005-4.442-.005 0 2.718-.015 5.324.01 7.929.007.691.332 1.277 1.117 1.263 2.142-.04 4.29-.063 6.423-.24 1.622-.133 2.357-1.315 2.638-2.792.123-.646.07-1.333.25-1.958.107-.373.485-.902.788-.936.592-.065 1.152.309 1.042 1.03-.22 1.45-.373 2.94-.853 4.31-.244.699-1.042 1.412-1.758 1.692-1.21.473-2.546.775-3.845.845-2.167.117-4.355.094-6.52-.055-2.029-.14-2.72-.826-2.802-2.832-.123-3.047-.064-6.102-.071-9.153-.002-.827.598-.945 1.24-.95 1.42-.01 2.838-.003 4.313-.003v-5.773c-.587 0-1.147.02-1.705-.005-.599-.026-.934-.342-.919-.963.016-.62.337-.902.961-.897 1.39.011 2.782.019 4.172-.004zm24.636.581c2.406.047 2.509.2 2.012 2.69-.812 4.065-1.594 8.135-2.423 12.386.669-.25 1.2-.438 1.722-.649.521-.21 1.012-.273 1.271.347.269.64.145 1.183-.565 1.46-1.348.526-2.685 1.086-4.055 1.549-1.938.654-3.902 1.23-5.854 1.845-.562.177-1.092.228-1.314-.465-.216-.675-.01-1.134.734-1.361 1.744-.534 3.461-1.163 5.215-1.66.816-.232 1.062-.686 1.118-1.463.244-3.421.525-6.84.803-10.259.098-1.191.237-2.379.336-3.57.053-.635.392-.862 1-.85zm17.476 6.289h-9.917v10.307h9.917V26.612zm-22.384-5.38c.145 3.716.296 7.43.46 11.525-.15.122-.472.55-.887.683-.606.195-.914-.294-1.004-.84-.588-3.542-1.18-7.083-1.725-10.632-.185-1.205.001-1.369 1.183-1.503.31-.035.615-.122.926-.14.621-.034 1.02.213 1.047.907zm-24.573-10.337c2.2.373 2.207.386 1.447 2.49-.103.287-.191.579-.317.96h9.314c1.54 0 1.702.08 1.595 1.575-.323 4.508-.649 9.019-1.12 13.513-.206 1.976-1.07 2.54-3.083 2.5-1.035-.02-2.068-.117-3.103-.167-.631-.03-1-.29-.991-.979.009-.71.41-.928 1.039-.901.314.013.628.02.94.049 1.638.15 2.092-.198 2.203-1.876.237-3.573.432-7.148.643-10.723.02-.338.033-.676.056-1.141h-3.697c-1.195 0-2.392.049-3.583-.018-.706-.04-.949.26-1.186.868-.945 2.424-1.953 4.824-2.952 7.226-.204.49-.412 1.074-1.144.776-.708-.288-.756-.827-.497-1.477 1.494-3.754 2.4-7.658 2.957-11.652.138-.996.447-1.198 1.48-1.023zM82.576 25.53c.208.956-.01 1.155-1.295 1.374-.366-.248-.964-.428-1.054-.758-.257-.937-.034-1.159.982-1.105.474.025 1.179-.378 1.367.489zm74.659-.531h.29c1.307.006 1.293.12 1.072 1.892-.655 0-1.337.036-2.013-.01-.735-.05-.598-.696-.521-1.133.048-.28.366-.54.616-.732.124-.095.367-.017.556-.017zm-39.212-.004c.564-.02 1.182-.202 1.202.843.022 1.157-.69.813-1.255.858-.57-.043-1.284.282-1.26-.863.025-1.136.75-.818 1.313-.838zM61.666 10.862c2.279.057.757 1.995 1.497 2.979h2.125c2.838 0 5.677.007 8.515-.005.648-.003 1.121.123 1.127.918.006.797-.5.95-1.122.95-2.964.008-5.929.003-8.893.007-.297 0-.593.027-.89.042l-.123.27c2 1.345 3.962 2.755 6.017 4.012 1.5.918 3.115 1.65 4.696 2.43.644.318 1.105.705.74 1.462-.35.726-.937.58-1.536.301-3.55-1.656-6.993-3.495-10.116-5.893-.195-.15-.399-.289-.76-.549v1.722c0 1.404.002 2.738-.002 4.073-.004 1.194-.189 1.374-1.37 1.384-2.116.018-2.178.018-2.18-1.985v-5.211l-1.154.86c-3.029 2.252-6.334 4.017-9.742 5.601-.59.274-1.17.448-1.526-.306-.363-.772.08-1.168.738-1.457 3.658-1.605 7.042-3.67 10.164-6.171.163-.13.32-.268.631-.53-.487-.025-.783-.055-1.078-.055-2.902-.003-5.803.02-8.704-.028-.428-.007-1.057-.235-1.234-.56-.4-.73.08-1.277 1.02-1.279 3.248-.008 6.496-.003 9.745-.003h.96c.181-.996.18-1.99.59-2.765.167-.318 1.219-.23 1.865-.214zm71.087 3.215h-5.89v6.364h5.89v-6.364zm36.214-.616v3.052c1.114 0 2.171.026 3.226-.01.71-.024 1.207.206 1.226.958.02.819-.578.926-1.236.925-3.304-.006-6.608-.005-9.912.001-.664.001-1.23-.127-1.239-.937-.009-.814.538-.955 1.216-.943 1.064.02 2.128.005 3.308.005 0-1.357-.013-2.585.004-3.812.015-1.03.264-1.256 1.305-1.273 2.102-.035 2.102-.035 2.102 2.034zM11.781.149c1.54.716 3.088 1.42 4.617 2.161.266.13.452.42.634.598-.367 1.522-.67 2.89-1.05 4.237-.062.224-.427.453-.693.52-1.683.414-3.375.794-5.07 1.165-.98.214-1.256-.02-1.066-.992.466-2.384.991-4.756 1.469-7.138.148-.738.54-.839 1.159-.551z"/>
</svg>
